PathFileType	4	(x/y/z)	S10_M20_T60
DataRate	CameraRate	NumFrames	NumMarkers	Units	OrigDataRate	OrigDataStartFrame	OrigNumFrames
240	240	4	51	mm	240	65	517
Frame#	Time	Sternum			R.Acromium			L.Acromium			Top.Head			R.ASIS			L.ASIS			R.PSIS			L.PSIS			R.Great.Tro			L.Great.Tro			R.Iliac.Crest			L.Iliac.Crest			V.Sacral			R.Thigh.Upper.Post			R.Thigh.Lower.Ant			R.Thigh.Lower.Post			R.Thigh.Upper.Ant			R.Knee.Lat			R.Knee.Med			R.Shank.Upper.Post			R.Shank.Lower.Ant			R.Shank.Lower.Post			R.Shank.Upper.Ant			R.Ankle.Lat			R.Ankle.Med			R.Heel.Upper			R.Heel.Med			R.Heel.Lat			R.Toe.Lat			R.Toe.Med			R.Toe.Tip			L.Thigh.Upper.Post			L.Thigh.Lower.Ant			L.Thigh.Lower.Post			L.Thigh.Upper.Ant			L.Knee.Lat			L.Knee.Med			L.Shank.Upper.Post			L.Shank.Lower.Ant			L.Shank.Lower.Post			L.Shank.Upper.Ant			L.Ankle.Lat			L.Ankle.Med			L.Heel.Upper			L.Heel.Med			L.Heel.Lat			L.Toe.Lat			L.Toe.Med			L.Toe.Tip			Cervical.Spine			Back			
		X1	Y1	Z1	X2	Y2	Z2	X3	Y3	Z3	X4	Y4	Z4	X5	Y5	Z5	X6	Y6	Z6	X7	Y7	Z7	X8	Y8	Z8	X9	Y9	Z9	X10	Y10	Z10	X11	Y11	Z11	X12	Y12	Z12	X13	Y13	Z13	X14	Y14	Z14	X15	Y15	Z15	X16	Y16	Z16	X17	Y17	Z17	X18	Y18	Z18	X19	Y19	Z19	X20	Y20	Z20	X21	Y21	Z21	X22	Y22	Z22	X23	Y23	Z23	X24	Y24	Z24	X25	Y25	Z25	X26	Y26	Z26	X27	Y27	Z27	X28	Y28	Z28	X29	Y29	Z29	X30	Y30	Z30	X31	Y31	Z31	X32	Y32	Z32	X33	Y33	Z33	X34	Y34	Z34	X35	Y35	Z35	X36	Y36	Z36	X37	Y37	Z37	X38	Y38	Z38	X39	Y39	Z39	X40	Y40	Z40	X41	Y41	Z41	X42	Y42	Z42	X43	Y43	Z43	X44	Y44	Z44	X45	Y45	Z45	X46	Y46	Z46	X47	Y47	Z47	X48	Y48	Z48	X49	Y49	Z49	X50	Y50	Z50	X51	Y51	Z51	

65	0.26667	-339.6	1263.4	306.98	-453.75	1422.9	455.04	-481.43	1426.6	147.56	-519.71	1730.8	312.6	-396.87	978.69	420.95	-381.08	1018.2	193.71	-591.71	1008.7	317.35	-581	1024.2	238.58	-480.2	892.56	475.1	-432.13	963.72	127.01	-492.85	1057.7	461.79	-446.77	1093.7	166.24	-608.42	982	275.95	-448.66	688.38	487.43	-381.98	612.88	465.73	-447.79	598.81	483.06	-380.06	704.73	466.81	-446.56	475.29	457.8	-427.7	464.84	326.94	-651.23	395.23	455.06	-668.96	305.23	451.84	-712.88	352.9	451.14	-601.6	343.96	456.44	-791.59	275.39	439.22	-772.64	268.34	356.8	-833.25	314.28	384.59	-856.78	302.8	355.33	-861.18	309.52	415.98	-860.15	139.6	466.48	-835.62	111.75	363.74	-815.7	57.807	408.84	-410.2	674.6	137.96	-325.53	614.28	178.09	-393.4	584.5	166.62	-336.15	700.58	151.08	-346.71	509.06	191.84	-352.97	516.47	319.73	-422.04	299.68	190.45	-362.45	208.71	213.58	-424.68	222.59	202	-359.68	284.81	201.8	-409.82	105.92	215.16	-397.44	114.21	303.95	-483.02	77.12	263.34	-469.39	43.219	295.28	-477.11	47.106	231.58	-302	41.318	187.07	-269.89	42.342	294.37	-216.55	54.976	243.44	-548.16	1479.6	317.36	-627.82	1268.3	314.14
66	0.27083	-334.85	1264.6	307.36	-449.7	1423.9	455.03	-475.55	1427.9	147.44	-514.25	1732.1	312.45	-391.93	980.16	420.58	-376.28	1019.1	193.23	-586.84	1009.9	317.09	-576.17	1025.2	238.27	-474.9	894.07	474.9	-427.77	964.24	126.7	-488.14	1059.1	461.4	-441.98	1094.6	165.83	-603.6	983.14	275.72	-440.75	690.01	487.6	-373.09	615.4	465.8	-438.64	600.45	483.33	-372.36	707.25	466.84	-435.62	476.99	457.96	-416.65	466.68	326.97	-639.74	396.22	454.64	-657.06	306.14	451.81	-701.22	353.65	450.85	-589.89	345.16	456.39	-779.63	275.59	439.05	-760.75	268.26	356.91	-822.64	313.46	384.28	-846.07	301.31	355.22	-850.24	308.32	415.91	-845.12	138.89	467.19	-820.53	111.09	364.4	-799.25	57.891	409.63	-407.74	675.02	137.81	-323.38	614.09	177.71	-391.59	584.8	166.43	-333.44	700.44	150.74	-345.33	508.96	191.54	-351.53	516.4	319.4	-421.39	299.79	190.32	-362.07	208.67	213.49	-424.28	222.75	201.92	-359.07	284.74	201.66	-409.71	105.96	215.12	-397.31	114.32	303.98	-482.99	77.176	263.35	-469.4	43.289	295.28	-477.09	47.18	231.57	-302	41.312	187.06	-269.87	42.309	294.36	-216.52	54.895	243.43	-543.37	1480.7	316.87	-623.04	1269.4	313.05
67	0.275	-330.12	1265.7	307.72	-445.66	1424.8	455.03	-469.67	1429.2	147.35	-508.8	1733.4	312.33	-386.97	981.64	420.17	-371.52	1020	192.71	-581.98	1011	316.88	-571.37	1026.2	238.01	-469.55	895.63	474.75	-423.46	964.76	126.39	-483.41	1060.5	461.02	-437.25	1095.5	165.41	-598.79	984.27	275.55	-432.84	691.7	487.78	-364.22	617.99	465.85	-429.49	602.16	483.62	-364.7	709.82	466.82	-424.74	478.77	458.12	-405.61	468.61	327.02	-628.3	397.14	454.21	-645.13	306.97	451.77	-689.56	354.29	450.56	-578.19	346.35	456.33	-767.61	275.59	438.87	-748.81	268.01	357.02	-812.04	312.37	383.98	-835.33	299.54	355.12	-839.28	306.81	415.85	-829.83	137.98	467.88	-805.16	110.27	365.03	-782.42	57.861	410.37	-405.33	675.46	137.68	-321.29	613.91	177.32	-389.84	585.11	166.25	-330.8	700.29	150.4	-344	508.88	191.22	-350.17	516.32	319.05	-420.74	299.9	190.17	-361.7	208.63	213.39	-423.88	222.92	201.81	-358.47	284.67	201.52	-409.6	106.01	215.09	-397.19	114.43	303.99	-482.97	77.234	263.36	-469.41	43.36	295.28	-477.07	47.253	231.57	-301.99	41.308	187.04	-269.85	42.281	294.34	-216.49	54.816	243.42	-538.6	1481.7	316.38	-618.28	1270.4	311.99
68	0.27917	-325.39	1266.9	308.05	-441.63	1425.7	455.03	-463.81	1430.5	147.26	-503.36	1734.6	312.22	-381.99	983.13	419.72	-366.79	1020.8	192.16	-577.14	1012.2	316.73	-566.59	1027.2	237.8	-464.16	897.21	474.65	-419.2	965.27	126.07	-478.65	1061.9	460.64	-432.56	1096.4	164.96	-593.99	985.38	275.45	-424.95	693.43	487.97	-355.38	620.65	465.88	-420.35	603.94	483.93	-357.08	712.43	466.75	-413.95	480.62	458.28	-394.57	470.62	327.08	-616.91	397.98	453.75	-633.16	307.71	451.73	-677.89	354.79	450.27	-566.49	347.51	456.25	-755.53	275.4	438.67	-736.82	267.6	357.14	-801.43	311.02	383.69	-824.54	297.47	355.02	-828.29	305.01	415.79	-814.3	136.86	468.54	-789.5	109.3	365.63	-765.26	57.728	411.08	-402.97	675.9	137.55	-319.26	613.71	176.9	-388.15	585.42	166.07	-328.23	700.13	150.05	-342.71	508.82	190.9	-348.88	516.23	318.7	-420.11	300.01	190.01	-361.34	208.61	213.29	-423.48	223.09	201.68	-357.88	284.61	201.37	-409.49	106.05	215.05	-397.08	114.55	304	-482.94	77.294	263.37	-469.43	43.432	295.27	-477.05	47.328	231.56	-301.99	41.303	187.02	-269.82	42.256	294.33	-216.46	54.738	243.41	-533.84	1482.8	315.9	-613.52	1271.5	310.95
